<?xml version="1.0" encoding="UTF-8"?>
<svg width="98px" height="33px" viewBox="0 0 98 33" version="1.1" xmlns="http://www.w3.org/2000/svg" xmlns:xlink="http://www.w3.org/1999/xlink">
    <!-- Generator: Sketch 49.1 (51147) - http://www.bohemiancoding.com/sketch -->
    <title>Bombers Club Logo</title>
    <desc>Created with Sketch.</desc>
    <defs>
        <path d="M12,22 L9,22 L9,21 L7,21 L7,23 L6,23 L6,25 L6,26 L7,26 L7,25 L8,25 L8,26 L8,23 L9,23 L9,26 L11,26 L11,24 L12,24 L12,22 Z M12,31 L12,33 L11,33 L11,31 L9,31 L9,32 L8,32 L8,34 L7,34 L7,36 L6,36 L6,31 L5,31 L5,32 L4,32 L4,35 L3,35 L3,26 L2,26 L2,29 L1,29 L1,32 L0,32 L0,19 L1,19 L1,16 L2,16 L2,13 L2,9 L3,9 L3,6 L4,6 L4,3 L5,3 L6,3 L9,3 L9,4 L12,4 L12,6 L15,6 L15,11 L15,16 L12,16 L12,18 L12,19 L15,19 L15,24 L15,29 L13,29 L13,31 L12,31 Z M6,13 L12,13 L12,11 L12,9 L9,9 L9,8 L7,8 L7,12 L6,12 L6,13 Z M34,34 L34,36 L33,36 L33,32 L29,32 L29,31 L26,31 L26,33 L25,33 L25,34 L24,34 L24,32 L23,32 L23,35 L22,35 L22,29 L22,28 L21,28 L21,15 L22,15 L22,12 L23,12 L23,9 L23,5 L24,5 L26,5 L26,4 L30,4 L30,3 L35,3 L36,3 L36,12 L35,12 L35,14 L34,14 L34,16 L33,16 L33,8 L32,8 L32,6 L31,6 L31,7 L29,7 L29,8 L27,8 L27,14 L26,14 L26,16 L26,24 L26,25 L27,25 L27,28 L30,28 L30,29 L33,29 L33,27 L34,27 L34,25 L35,25 L35,23 L36,23 L36,32 L35,32 L35,34 L34,34 Z" id="path-1"></path>
    </defs>
    <g id="Page-1" stroke="none" stroke-width="1" fill="none" fill-rule="evenodd">
        <g id="Desktop" transform="translate(-214.000000, -119.000000)">
            <g id="Bombers-Club-Logo" transform="translate(214.000000, 116.000000)">
                <g id="text" transform="translate(44.000000, 0.000000)" fill="#FFFFFF" font-family="PixelCyr-Normal, Pixel Cyr" font-weight="normal">
                    <text id="bomber`s" font-size="11" letter-spacing="0.0425000042">
                        <tspan x="0" y="11">bomber`s</tspan>
                    </text>
                    <text id="club" font-size="24" letter-spacing="0.0927272812">
                        <tspan x="0" y="32">club</tspan>
                    </text>
                </g>
                <mask id="mask-2" fill="white">
                    <use xlink:href="#path-1"></use>
                </mask>
                <use id="Combined-Shape" fill="#FFFFFF" xlink:href="#path-1"></use>
            </g>
        </g>
    </g>
</svg>