<?xml version="1.0" encoding="UTF-8"?>
<svg width="298px" height="149px" viewBox="0 0 298 149" version="1.1" xmlns="http://www.w3.org/2000/svg" xmlns:xlink="http://www.w3.org/1999/xlink">
    <!-- Generator: Sketch 49.1 (51147) - http://www.bohemiancoding.com/sketch -->
    <title>Artboard 5</title>
    <desc>Created with Sketch.</desc>
    <defs></defs>
    <g id="Artboard-5" stroke="none" stroke-width="1" fill="none" fill-rule="evenodd">
        <g id="Avatar">
            <path d="M4,2 L4,1 L145,1 L145,2 L146,2 L146,3 L147,3 L147,4 L148,4 L148,42 L147,42 L147,43 L146,43 L146,44 L145,44 L145,45 L4,45 L4,44 L3,44 L3,43 L2,43 L2,42 L1,42 L1,4 L2,4 L2,3 L3,3 L3,2 L4,2 Z" id="Combined-Shape" fill="#FFFFFF"></path>
            <path d="M7,8 L7,7 L8,7 L8,6 L38,6 L38,7 L39,7 L39,8 L40,8 L40,38 L39,38 L39,39 L38,39 L38,40 L8,40 L8,39 L7,39 L7,38 L6,38 L6,8 L7,8 Z" id="Combined-Shape" fill="#FFE600"></path>
            <rect id="Rectangle-88" fill="#2F2121" x="33" y="13" width="1" height="10"></rect>
            <rect id="Rectangle-88" fill="#2F2121" x="32" y="23" width="1" height="2"></rect>
            <rect id="Rectangle-88" fill="#2F2121" x="13" y="23" width="1" height="2"></rect>
            <rect id="Rectangle-88" fill="#2F2121" x="32" y="11" width="1" height="2"></rect>
            <rect id="Rectangle-88" fill="#2F2121" x="12" y="19" width="1" height="4"></rect>
            <rect id="Rectangle-88" fill="#2F2121" x="12" y="19" width="1" height="4"></rect>
            <rect id="Rectangle-88" fill="#2F2121" x="11" y="14" width="1" height="5"></rect>
            <rect id="Rectangle-88" fill="#2F2121" x="12" y="11" width="1" height="3"></rect>
            <rect id="Rectangle-88" fill="#2F2121" x="13" y="10" width="1" height="1"></rect>
            <rect id="Rectangle-88" fill="#2F2121" x="13" y="10" width="1" height="1"></rect>
            <rect id="Rectangle-88" fill="#2F2121" x="14" y="9" width="1" height="1"></rect>
            <rect id="Rectangle-88" fill="#2F2121" x="30" y="9" width="1" height="1"></rect>
            <rect id="Rectangle-88" fill="#2F2121" x="31" y="10" width="1" height="1"></rect>
            <rect id="Rectangle-86" fill="#000000" x="14" y="33" width="18" height="3"></rect>
            <rect id="Rectangle-86" fill="#0A0909" x="12" y="34" width="22" height="3"></rect>
            <rect id="Rectangle-88" fill="#2F2121" x="15" y="8" width="15" height="2"></rect>
            <rect id="Rectangle-83" fill="#191919" x="9" y="36" width="28" height="4"></rect>
            <rect id="Rectangle-83" fill="#191919" x="8" y="39" width="30" height="1"></rect>
            <rect id="Rectangle-83" fill="#000000" x="7" y="37" width="32" height="2"></rect>
            <rect id="Rectangle-83" fill="#C3997D" x="18" y="35" width="10" height="5"></rect>
            <rect id="Rectangle-83" fill="#000000" x="8" y="39" width="30" height="1"></rect>
            <rect id="Rectangle-83" fill="#1A1919" x="14" y="38" width="5" height="1"></rect>
            <rect id="Rectangle-83" fill="#1A1919" x="27" y="38" width="5" height="1"></rect>
            <g id="Face" transform="translate(14.000000, 9.000000)">
                <path d="M6,26 L4,26 L4,25 L2,25 L2,24 L1,24 L1,23 L0,23 L0,2 L1,2 L1,1 L2,1 L2,0 L16,0 L16,1 L17,1 L17,2 L18,2 L18,23 L17,23 L17,24 L16,24 L16,25 L14,25 L14,26 L12,26 L12,27 L6,27 L6,26 Z" id="Combined-Shape" fill="#E8B796"></path>
                <g id="Eye" transform="translate(11.000000, 11.000000)">
                    <path d="M1,1 L1,0 L4,0 L4,1 L5,1 L5,4 L1,4 L0,4 L0,1 L1,1 Z" id="Combined-Shape" fill="#FFFFFF"></path>
                    <rect id="Rectangle-77" fill="#835353" x="1" y="2" width="3" height="2"></rect>
                    <rect id="Rectangle-77" fill="#E9E9E9" x="3" y="2" width="1" height="1"></rect>
                    <rect id="Rectangle-78" fill="#724646" x="1" y="3" width="1" height="1"></rect>
                    <rect id="Rectangle-78" fill="#724646" x="0" y="3" width="1" height="1"></rect>
                    <rect id="Rectangle-78" fill="#633A3A" x="2" y="3" width="1" height="1"></rect>
                    <rect id="Rectangle-78" fill="#4F2E2E" x="3" y="3" width="1" height="1"></rect>
                </g>
                <path d="M2,13 L3,13 L3,14 L2,14 L2,13 Z M6,13 L7,13 L7,14 L6,14 L6,13 Z M3,12 L6,12 L6,13 L3,13 L3,12 Z" id="Combined-Shape" fill="#000000"></path>
                <g id="Group-12" transform="translate(5.000000, 19.000000)">
                    <g id="Group-11">
                        <rect id="Rectangle-79" fill="#000000" x="1" y="1" width="4" height="1"></rect>
                        <rect id="Rectangle-79" fill="#000000" x="1" y="0" width="6" height="1"></rect>
                        <rect id="Rectangle-79" fill="#000000" transform="translate(6.500000, 1.500000) scale(1, -1) translate(-6.500000, -1.500000) " x="6" y="1" width="1" height="1"></rect>
                        <rect id="Rectangle-79" fill="#000000" transform="translate(5.000000, 3.500000) scale(1, -1) translate(-5.000000, -3.500000) " x="4" y="3" width="2" height="1"></rect>
                        <rect id="Rectangle-79" fill="#000000" transform="translate(6.500000, 2.500000) scale(1, -1) translate(-6.500000, -2.500000) " x="6" y="2" width="1" height="1"></rect>
                        <rect id="Rectangle-79" fill="#000000" transform="translate(0.500000, 0.500000) scale(1, -1) translate(-0.500000, -0.500000) " x="0" y="0" width="1" height="1"></rect>
                        <rect id="Rectangle-79" fill="#000000" transform="translate(3.500000, 3.500000) scale(1, -1) translate(-3.500000, -3.500000) " x="3" y="3" width="1" height="1"></rect>
                        <rect id="Rectangle-79" fill="#000000" transform="translate(2.500000, 3.500000) scale(1, -1) translate(-2.500000, -3.500000) " x="2" y="3" width="1" height="1"></rect>
                        <rect id="Rectangle-81" fill="#FFFFFF" x="2" y="1" width="4" height="1"></rect>
                        <rect id="Rectangle-80" fill="#C95555" x="2" y="2" width="4" height="1"></rect>
                    </g>
                    <rect id="Rectangle-79" fill="#000000" transform="translate(1.500000, 2.500000) scale(1, -1) translate(-1.500000, -2.500000) " x="1" y="2" width="1" height="1"></rect>
                </g>
                <rect id="Rectangle-90" fill="#8D3939" x="9" y="21" width="2" height="1"></rect>
                <g id="Brow" transform="translate(11.000000, 9.000000)">
                    <rect id="Rectangle-89" fill="#272727" x="4" y="20" width="1" height="1"></rect>
                    <rect id="Rectangle-84" fill="#000000" x="0" y="1" width="1" height="1"></rect>
                    <rect id="Rectangle-84" fill="#000000" x="4" y="1" width="2" height="1"></rect>
                    <rect id="Rectangle-84" fill="#000000" x="1" y="0" width="3" height="1"></rect>
                </g>
                <g id="Brow" transform="translate(3.500000, 10.500000) scale(-1, 1) translate(-3.500000, -10.500000) translate(2.000000, 10.000000)" fill="#000000">
                    <rect id="Rectangle-84" x="0" y="0" width="3" height="1"></rect>
                </g>
                <rect id="Rectangle-87" fill="#C2987B" x="8" y="17" width="2" height="1"></rect>
            </g>
            <rect id="Rectangle-85" fill="#C2987B" x="14" y="17" width="1" height="15"></rect>
            <g id="Hair" transform="translate(12.000000, 9.000000)" fill="#3E2B2B">
                <path d="M15,6 L14,6 L14,7 L13,7 L13,9 L12,9 L12,7 L11,7 L11,9 L10,9 L10,10 L9,10 L9,11 L8,11 L8,9 L7,9 L7,10 L6,10 L6,8 L5,8 L5,9 L4,9 L4,12 L3,12 L3,11 L2,11 L2,14 L1,14 L1,9 L2,9 L2,7 L1,7 L1,2 L2,2 L2,1 L3,1 L3,0 L18,0 L18,1 L19,1 L19,2 L20,2 L20,4 L21,4 L21,9 L21,14 L20,14 L20,13 L19,13 L19,11 L18,11 L18,9 L17,9 L17,10 L16,10 L16,8 L15,8 L15,6 Z M3,5.5 L3,3 L2,3 L2,6 L3,6 L3,7 L3,5.5 Z" id="Combined-Shape"></path>
                <g transform="translate(0.000000, 5.000000)" id="Rectangle-82">
                    <rect x="0" y="0" width="2" height="5"></rect>
                </g>
                <g transform="translate(1.000000, 3.000000)" id="Rectangle-82">
                    <rect x="0" y="0" width="3" height="5"></rect>
                </g>
            </g>
            <rect id="Rectangle-86" fill="#000000" x="28" y="36" width="9" height="1"></rect>
            <rect id="Rectangle-86" fill="#000000" x="37" y="37" width="2" height="1"></rect>
            <rect id="Rectangle-86" fill="#000000" x="7" y="37" width="2" height="1"></rect>
            <rect id="Rectangle-86" fill="#000000" x="9" y="36" width="9" height="1"></rect>
            <rect id="Rectangle-85" fill="#C2987B" x="31" y="19" width="1" height="13"></rect>
            <rect id="Rectangle-85" fill="#C2987B" x="30" y="32" width="1" height="1"></rect>
            <rect id="Rectangle-85" fill="#C2987B" x="30" y="32" width="1" height="1"></rect>
            <rect id="Rectangle-85" fill="#C2987B" x="15" y="32" width="1" height="1"></rect>
            <rect id="Rectangle-85" fill="#C2987B" x="28" y="33" width="2" height="1"></rect>
            <rect id="Rectangle-85" fill="#C2987B" x="16" y="33" width="2" height="1"></rect>
            <rect id="Rectangle-85" fill="#AF8970" x="26" y="34" width="2" height="1"></rect>
            <rect id="Rectangle-85" fill="#967661" x="27" y="35" width="1" height="3"></rect>
            <rect id="Rectangle-85" fill="#A7856F" x="18" y="35" width="1" height="3"></rect>
            <rect id="Rectangle-85" fill="#AF8970" x="18" y="34" width="2" height="1"></rect>
            <rect id="Rectangle-85" fill="#AF8970" x="20" y="35" width="6" height="1"></rect>
            <text id="Ash" font-family="PixelCyr-Normal, Pixel Cyr" font-size="12" font-weight="normal" letter-spacing="0.127499983" fill="#000000">
                <tspan x="45" y="15">Ash</tspan>
            </text>
            <g id="Progress-bar" transform="translate(45.000000, 21.000000)" fill="#E3E3E3">
                <rect id="Rectangle-91" x="0" y="1" width="97" height="2"></rect>
                <rect id="Rectangle-91" x="1" y="0" width="95" height="2"></rect>
                <rect id="Rectangle-91" x="1" y="3" width="95" height="2"></rect>
                <rect id="Rectangle-91" x="0" y="2" width="97" height="2"></rect>
            </g>
            <g id="Group-14" transform="translate(1.000000, 42.000000)" fill="#A1A1A1">
                <path d="M2,4 L1,4 L1,3 L0,3 L0,2 L0,1 L0,0 L1,0 L1,1 L2,1 L2,2 L3,2 L3,3 L144,3 L144,2 L145,2 L145,1 L146,1 L146,0 L147,0 L147,1 L147,2 L147,3 L146,3 L146,4 L145,4 L145,5 L144,5 L144,6 L3,6 L3,5 L2,5 L2,4 Z" id="Combined-Shape"></path>
            </g>
            <path d="M4,48 L145,48 L145,49 L4,49 L4,48 Z M145,47 L146,47 L146,48 L145,48 L145,47 Z M146,46 L147,46 L147,47 L146,47 L146,46 Z M147,45 L148,45 L148,46 L147,46 L147,45 Z M1,45 L2,45 L2,46 L1,46 L1,45 Z M2,46 L3,46 L3,47 L2,47 L2,46 Z M3,47 L4,47 L4,48 L3,48 L3,47 Z" id="Combined-Shape" fill="#000000"></path>
            <path d="M4,3 L145,3 L145,4 L4,4 L4,3 Z M145,2 L146,2 L146,3 L145,3 L145,2 Z M146,1 L147,1 L147,2 L146,2 L146,1 Z M147,0 L148,0 L148,1 L147,1 L147,0 Z M1,0 L2,0 L2,1 L1,1 L1,0 Z M2,1 L3,1 L3,2 L2,2 L2,1 Z M3,2 L4,2 L4,3 L3,3 L3,2 Z" id="Combined-Shape" fill="#000000" transform="translate(74.500000, 2.000000) scale(1, -1) translate(-74.500000, -2.000000) "></path>
            <rect id="Rectangle-93" fill="#000000" x="148" y="4" width="1" height="41"></rect>
            <rect id="Rectangle-93" fill="#000000" x="0" y="4" width="1" height="41"></rect>
            <g id="Group-17" transform="translate(122.000000, 6.000000)" fill="#000000">
                <rect id="Rectangle-100" x="0" y="1" width="5" height="3"></rect>
                <rect id="Rectangle-100" x="1" y="0" width="3" height="5"></rect>
                <rect id="Rectangle-100" x="14" y="1" width="5" height="3"></rect>
                <rect id="Rectangle-100" x="15" y="0" width="3" height="5"></rect>
                <rect id="Rectangle-100" x="7" y="1" width="5" height="3"></rect>
                <rect id="Rectangle-100" x="8" y="0" width="3" height="5"></rect>
            </g>
        </g>
        <g id="Avatar" transform="translate(149.000000, 0.000000)">
            <path d="M4,2 L4,1 L145,1 L145,2 L146,2 L146,3 L147,3 L147,4 L148,4 L148,42 L147,42 L147,43 L146,43 L146,44 L145,44 L145,45 L4,45 L4,44 L3,44 L3,43 L2,43 L2,42 L1,42 L1,4 L2,4 L2,3 L3,3 L3,2 L4,2 Z" id="Combined-Shape" fill="#FFFFFF"></path>
            <path d="M7,8 L7,7 L8,7 L8,6 L38,6 L38,7 L39,7 L39,8 L40,8 L40,38 L39,38 L39,39 L38,39 L38,40 L8,40 L8,39 L7,39 L7,38 L6,38 L6,8 L7,8 Z" id="Combined-Shape" fill="#FFE600"></path>
            <rect id="Rectangle-86" fill="#000000" x="14" y="33" width="18" height="3"></rect>
            <rect id="Rectangle-86" fill="#0A0909" x="12" y="34" width="22" height="3"></rect>
            <rect id="Rectangle-83" fill="#191919" x="9" y="36" width="28" height="4"></rect>
            <rect id="Rectangle-83" fill="#191919" x="8" y="39" width="30" height="1"></rect>
            <rect id="Rectangle-83" fill="#000000" x="7" y="37" width="32" height="2"></rect>
            <rect id="Rectangle-83" fill="#C3997D" x="18" y="35" width="10" height="5"></rect>
            <rect id="Rectangle-83" fill="#000000" x="8" y="39" width="30" height="1"></rect>
            <rect id="Rectangle-83" fill="#1A1919" x="14" y="38" width="5" height="1"></rect>
            <rect id="Rectangle-83" fill="#1A1919" x="27" y="38" width="5" height="1"></rect>
            <g id="sheya" transform="translate(18.000000, 35.000000)">
                <rect id="Rectangle-85" fill="#967661" x="9" y="0" width="1" height="3"></rect>
                <rect id="Rectangle-85" fill="#A7856F" x="0" y="0" width="1" height="3"></rect>
            </g>
            <g id="head" transform="translate(11.000000, 9.000000)">
                <g id="Face" transform="translate(3.000000, 1.000000)">
                    <path d="M6,26 L4,26 L4,25 L2,25 L2,24 L1,24 L1,23 L0,23 L0,2 L1,2 L1,1 L2,1 L2,0 L16,0 L16,1 L17,1 L17,2 L18,2 L18,23 L17,23 L17,24 L16,24 L16,25 L14,25 L14,26 L12,26 L12,27 L6,27 L6,26 Z" id="Combined-Shape" fill="#E8B796"></path>
                    <g id="Eye" transform="translate(11.000000, 11.000000)">
                        <path d="M1,1 L1,0 L4,0 L4,1 L5,1 L5,4 L1,4 L0,4 L0,1 L1,1 Z" id="Combined-Shape" fill="#FFFFFF"></path>
                        <rect id="Rectangle-77" fill="#835353" x="1" y="2" width="3" height="2"></rect>
                        <rect id="Rectangle-77" fill="#E9E9E9" x="3" y="2" width="1" height="1"></rect>
                        <rect id="Rectangle-78" fill="#724646" x="1" y="3" width="1" height="1"></rect>
                        <rect id="Rectangle-78" fill="#724646" x="0" y="3" width="1" height="1"></rect>
                        <rect id="Rectangle-78" fill="#633A3A" x="2" y="3" width="1" height="1"></rect>
                        <rect id="Rectangle-78" fill="#4F2E2E" x="3" y="3" width="1" height="1"></rect>
                    </g>
                    <path d="M2,13 L3,13 L3,14 L2,14 L2,13 Z M6,13 L7,13 L7,14 L6,14 L6,13 Z M3,12 L6,12 L6,13 L3,13 L3,12 Z" id="Combined-Shape" fill="#000000"></path>
                    <g id="Group-12" transform="translate(5.000000, 19.000000)">
                        <g id="Group-11">
                            <rect id="Rectangle-79" fill="#000000" x="1" y="1" width="4" height="1"></rect>
                            <rect id="Rectangle-79" fill="#000000" x="1" y="0" width="6" height="1"></rect>
                            <rect id="Rectangle-79" fill="#000000" transform="translate(6.500000, 1.500000) scale(1, -1) translate(-6.500000, -1.500000) " x="6" y="1" width="1" height="1"></rect>
                            <rect id="Rectangle-79" fill="#000000" transform="translate(5.000000, 3.500000) scale(1, -1) translate(-5.000000, -3.500000) " x="4" y="3" width="2" height="1"></rect>
                            <rect id="Rectangle-79" fill="#000000" transform="translate(6.500000, 2.500000) scale(1, -1) translate(-6.500000, -2.500000) " x="6" y="2" width="1" height="1"></rect>
                            <rect id="Rectangle-79" fill="#000000" transform="translate(0.500000, 0.500000) scale(1, -1) translate(-0.500000, -0.500000) " x="0" y="0" width="1" height="1"></rect>
                            <rect id="Rectangle-79" fill="#000000" transform="translate(3.500000, 3.500000) scale(1, -1) translate(-3.500000, -3.500000) " x="3" y="3" width="1" height="1"></rect>
                            <rect id="Rectangle-79" fill="#000000" transform="translate(2.500000, 3.500000) scale(1, -1) translate(-2.500000, -3.500000) " x="2" y="3" width="1" height="1"></rect>
                            <rect id="Rectangle-81" fill="#FFFFFF" x="2" y="1" width="4" height="1"></rect>
                            <rect id="Rectangle-80" fill="#C95555" x="2" y="2" width="4" height="1"></rect>
                        </g>
                        <rect id="Rectangle-79" fill="#000000" transform="translate(1.500000, 2.500000) scale(1, -1) translate(-1.500000, -2.500000) " x="1" y="2" width="1" height="1"></rect>
                    </g>
                    <rect id="Rectangle-90" fill="#8D3939" x="9" y="21" width="2" height="1"></rect>
                    <g id="Brow" transform="translate(11.000000, 9.000000)">
                        <rect id="Rectangle-89" fill="#272727" x="4" y="20" width="1" height="1"></rect>
                        <rect id="Rectangle-84" fill="#000000" x="0" y="1" width="1" height="1"></rect>
                        <rect id="Rectangle-84" fill="#000000" x="4" y="1" width="2" height="1"></rect>
                        <rect id="Rectangle-84" fill="#000000" x="1" y="0" width="3" height="1"></rect>
                    </g>
                    <g id="Brow" transform="translate(3.500000, 10.500000) scale(-1, 1) translate(-3.500000, -10.500000) translate(2.000000, 10.000000)" fill="#000000">
                        <rect id="Rectangle-84" x="0" y="0" width="3" height="1"></rect>
                    </g>
                    <rect id="Rectangle-87" fill="#C2987B" x="8" y="17" width="2" height="1"></rect>
                    <g id="litso" transform="translate(0.000000, 8.000000)">
                        <g id="Rectangle-85">
                            <rect fill="#C2987B" x="17" y="2" width="1" height="13"></rect>
                            <rect fill="#C2987B" x="0" y="0" width="1" height="15"></rect>
                            <rect fill="#C2987B" x="16" y="15" width="1" height="1"></rect>
                            <rect fill="#C2987B" x="16" y="15" width="1" height="1"></rect>
                            <rect fill="#C2987B" x="1" y="15" width="1" height="1"></rect>
                            <rect fill="#C2987B" x="14" y="16" width="2" height="1"></rect>
                            <rect fill="#C2987B" x="2" y="16" width="2" height="1"></rect>
                            <rect fill="#AF8970" x="12" y="17" width="2" height="1"></rect>
                        </g>
                        <g id="podborodok" transform="translate(4.000000, 17.000000)" fill="#AF8970">
                            <rect id="Rectangle-85" x="0" y="0" width="2" height="1"></rect>
                            <rect id="Rectangle-85" x="2" y="1" width="6" height="1"></rect>
                        </g>
                    </g>
                </g>
                <rect id="Rectangle-88" fill="#2F2121" x="4" y="0" width="15" height="2"></rect>
                <g id="Hair" transform="translate(0.000000, 1.000000)">
                    <path d="M16,6 L15,6 L15,7 L14,7 L14,9 L13,9 L13,7 L12,7 L12,9 L11,9 L11,10 L10,10 L10,11 L9,11 L9,9 L8,9 L8,10 L7,10 L7,8 L6,8 L6,9 L5,9 L5,12 L4,12 L4,11 L3,11 L3,14 L2,14 L2,9 L3,9 L3,7 L2,7 L2,2 L3,2 L3,1 L4,1 L4,0 L19,0 L19,1 L20,1 L20,2 L21,2 L21,4 L22,4 L22,9 L22,14 L21,14 L21,13 L20,13 L20,11 L19,11 L19,9 L18,9 L18,10 L17,10 L17,8 L16,8 L16,6 Z M4,5.5 L4,3 L3,3 L3,6 L4,6 L4,7 L4,5.5 Z" id="Combined-Shape" fill="#3E2B2B"></path>
                    <g transform="translate(1.000000, 5.000000)" fill="#3E2B2B" id="Rectangle-82">
                        <rect x="0" y="0" width="2" height="5"></rect>
                    </g>
                    <g transform="translate(2.000000, 3.000000)" fill="#3E2B2B" id="Rectangle-82">
                        <rect x="0" y="0" width="3" height="5"></rect>
                    </g>
                    <rect id="Rectangle-88" fill="#2F2121" x="22" y="4" width="1" height="10"></rect>
                    <rect id="Rectangle-88" fill="#2F2121" x="21" y="14" width="1" height="2"></rect>
                    <rect id="Rectangle-88" fill="#2F2121" x="2" y="14" width="1" height="2"></rect>
                    <rect id="Rectangle-88" fill="#2F2121" x="21" y="2" width="1" height="2"></rect>
                    <rect id="Rectangle-88" fill="#2F2121" x="1" y="10" width="1" height="4"></rect>
                    <rect id="Rectangle-88" fill="#2F2121" x="1" y="10" width="1" height="4"></rect>
                    <rect id="Rectangle-88" fill="#2F2121" x="0" y="5" width="1" height="5"></rect>
                    <rect id="Rectangle-88" fill="#2F2121" x="1" y="2" width="1" height="3"></rect>
                    <rect id="Rectangle-88" fill="#2F2121" x="2" y="1" width="1" height="1"></rect>
                    <rect id="Rectangle-88" fill="#2F2121" x="2" y="1" width="1" height="1"></rect>
                    <rect id="Rectangle-88" fill="#2F2121" x="3" y="0" width="1" height="1"></rect>
                    <rect id="Rectangle-88" fill="#2F2121" x="19" y="0" width="1" height="1"></rect>
                    <rect id="Rectangle-88" fill="#2F2121" x="20" y="1" width="1" height="1"></rect>
                </g>
            </g>
            <g id="kapushon" transform="translate(7.000000, 36.000000)" fill="#000000">
                <rect id="Rectangle-86" x="21" y="0" width="9" height="1"></rect>
                <rect id="Rectangle-86" x="30" y="1" width="2" height="1"></rect>
                <rect id="Rectangle-86" x="0" y="1" width="2" height="1"></rect>
                <rect id="Rectangle-86" x="2" y="0" width="9" height="1"></rect>
            </g>
            <text id="Ash" font-family="PixelCyr-Normal, Pixel Cyr" font-size="12" font-weight="normal" letter-spacing="0.127499983" fill="#000000">
                <tspan x="45" y="15">Ash</tspan>
            </text>
            <g id="Progress-bar" transform="translate(45.000000, 21.000000)" fill="#E3E3E3">
                <rect id="Rectangle-91" x="0" y="1" width="97" height="2"></rect>
                <rect id="Rectangle-91" x="1" y="0" width="95" height="2"></rect>
                <rect id="Rectangle-91" x="1" y="3" width="95" height="2"></rect>
                <rect id="Rectangle-91" x="0" y="2" width="97" height="2"></rect>
            </g>
            <g id="Group-14" transform="translate(1.000000, 42.000000)" fill="#A1A1A1">
                <path d="M2,4 L1,4 L1,3 L0,3 L0,2 L0,1 L0,0 L1,0 L1,1 L2,1 L2,2 L3,2 L3,3 L144,3 L144,2 L145,2 L145,1 L146,1 L146,0 L147,0 L147,1 L147,2 L147,3 L146,3 L146,4 L145,4 L145,5 L144,5 L144,6 L3,6 L3,5 L2,5 L2,4 Z" id="Combined-Shape"></path>
            </g>
            <path d="M4,48 L145,48 L145,49 L4,49 L4,48 Z M145,47 L146,47 L146,48 L145,48 L145,47 Z M146,46 L147,46 L147,47 L146,47 L146,46 Z M147,45 L148,45 L148,46 L147,46 L147,45 Z M1,45 L2,45 L2,46 L1,46 L1,45 Z M2,46 L3,46 L3,47 L2,47 L2,46 Z M3,47 L4,47 L4,48 L3,48 L3,47 Z" id="Combined-Shape" fill="#000000"></path>
            <path d="M4,3 L145,3 L145,4 L4,4 L4,3 Z M145,2 L146,2 L146,3 L145,3 L145,2 Z M146,1 L147,1 L147,2 L146,2 L146,1 Z M147,0 L148,0 L148,1 L147,1 L147,0 Z M1,0 L2,0 L2,1 L1,1 L1,0 Z M2,1 L3,1 L3,2 L2,2 L2,1 Z M3,2 L4,2 L4,3 L3,3 L3,2 Z" id="Combined-Shape" fill="#000000" transform="translate(74.500000, 2.000000) scale(1, -1) translate(-74.500000, -2.000000) "></path>
            <rect id="Rectangle-93" fill="#000000" x="148" y="4" width="1" height="41"></rect>
            <rect id="Rectangle-93" fill="#000000" x="0" y="4" width="1" height="41"></rect>
            <g id="Group-17" transform="translate(122.000000, 6.000000)" fill="#000000">
                <rect id="Rectangle-100" x="0" y="1" width="5" height="3"></rect>
                <rect id="Rectangle-100" x="1" y="0" width="3" height="5"></rect>
                <rect id="Rectangle-100" x="14" y="1" width="5" height="3"></rect>
                <rect id="Rectangle-100" x="15" y="0" width="3" height="5"></rect>
                <rect id="Rectangle-100" x="7" y="1" width="5" height="3"></rect>
                <rect id="Rectangle-100" x="8" y="0" width="3" height="5"></rect>
            </g>
        </g>
    </g>
</svg>