<?xml version="1.0" encoding="UTF-8"?>
<svg width="96px" height="48px" viewBox="0 0 96 48" version="1.1" xmlns="http://www.w3.org/2000/svg" xmlns:xlink="http://www.w3.org/1999/xlink">
    <!-- Generator: Sketch 49.1 (51147) - http://www.bohemiancoding.com/sketch -->
    <title>Artboard 8</title>
    <desc>Created with Sketch.</desc>
    <defs>
        <filter x="-12.5%" y="-12.5%" width="125.0%" height="125.0%" filterUnits="objectBoundingBox" id="filter-1">
            <feOffset dx="0" dy="0" in="SourceAlpha" result="shadowOffsetOuter1"></feOffset>
            <feGaussianBlur stdDeviation="1" in="shadowOffsetOuter1" result="shadowBlurOuter1"></feGaussianBlur>
            <feColorMatrix values="0 0 0 0 0   0 0 0 0 0   0 0 0 0 0  0 0 0 0.5 0" type="matrix" in="shadowBlurOuter1" result="shadowMatrixOuter1"></feColorMatrix>
            <feMerge>
                <feMergeNode in="shadowMatrixOuter1"></feMergeNode>
                <feMergeNode in="SourceGraphic"></feMergeNode>
            </feMerge>
        </filter>
        <filter x="-12.5%" y="-12.5%" width="125.0%" height="125.0%" filterUnits="objectBoundingBox" id="filter-2">
            <feOffset dx="0" dy="0" in="SourceAlpha" result="shadowOffsetOuter1"></feOffset>
            <feGaussianBlur stdDeviation="1" in="shadowOffsetOuter1" result="shadowBlurOuter1"></feGaussianBlur>
            <feColorMatrix values="0 0 0 0 0   0 0 0 0 0   0 0 0 0 0  0 0 0 0.5 0" type="matrix" in="shadowBlurOuter1" result="shadowMatrixOuter1"></feColorMatrix>
            <feMerge>
                <feMergeNode in="shadowMatrixOuter1"></feMergeNode>
                <feMergeNode in="SourceGraphic"></feMergeNode>
            </feMerge>
        </filter>
        <filter x="-12.5%" y="-12.5%" width="125.0%" height="125.0%" filterUnits="objectBoundingBox" id="filter-3">
            <feOffset dx="0" dy="0" in="SourceAlpha" result="shadowOffsetOuter1"></feOffset>
            <feGaussianBlur stdDeviation="1" in="shadowOffsetOuter1" result="shadowBlurOuter1"></feGaussianBlur>
            <feColorMatrix values="0 0 0 0 0   0 0 0 0 0   0 0 0 0 0  0 0 0 0.5 0" type="matrix" in="shadowBlurOuter1" result="shadowMatrixOuter1"></feColorMatrix>
            <feMerge>
                <feMergeNode in="shadowMatrixOuter1"></feMergeNode>
                <feMergeNode in="SourceGraphic"></feMergeNode>
            </feMerge>
        </filter>
        <filter x="-12.5%" y="-12.5%" width="125.0%" height="125.0%" filterUnits="objectBoundingBox" id="filter-4">
            <feOffset dx="0" dy="0" in="SourceAlpha" result="shadowOffsetOuter1"></feOffset>
            <feGaussianBlur stdDeviation="1" in="shadowOffsetOuter1" result="shadowBlurOuter1"></feGaussianBlur>
            <feColorMatrix values="0 0 0 0 0   0 0 0 0 0   0 0 0 0 0  0 0 0 0.5 0" type="matrix" in="shadowBlurOuter1" result="shadowMatrixOuter1"></feColorMatrix>
            <feMerge>
                <feMergeNode in="shadowMatrixOuter1"></feMergeNode>
                <feMergeNode in="SourceGraphic"></feMergeNode>
            </feMerge>
        </filter>
        <filter x="-12.5%" y="-12.5%" width="125.0%" height="125.0%" filterUnits="objectBoundingBox" id="filter-5">
            <feOffset dx="0" dy="0" in="SourceAlpha" result="shadowOffsetOuter1"></feOffset>
            <feGaussianBlur stdDeviation="1" in="shadowOffsetOuter1" result="shadowBlurOuter1"></feGaussianBlur>
            <feColorMatrix values="0 0 0 0 0   0 0 0 0 0   0 0 0 0 0  0 0 0 0.5 0" type="matrix" in="shadowBlurOuter1" result="shadowMatrixOuter1"></feColorMatrix>
            <feMerge>
                <feMergeNode in="shadowMatrixOuter1"></feMergeNode>
                <feMergeNode in="SourceGraphic"></feMergeNode>
            </feMerge>
        </filter>
    </defs>
    <g id="Artboard-8" stroke="none" stroke-width="1" fill="none" fill-rule="evenodd">
        <g id="Eye" filter="url(#filter-1)" transform="translate(0.000000, 24.000000)">
            <path d="M11,11 L11,10 L13,10 L13,11 L14,11 L14,13 L13,13 L13,14 L11,14 L11,13 L10,13 L10,11 L11,11 Z M18,12 L18,11 L19,11 L19,12 L19,13 L18,13 L18,12 Z M9,15 L15,15 L15,16 L9,16 L9,15 Z M7,14 L9,14 L9,15 L7,15 L7,14 Z M5,11 L6,11 L6,13 L5,13 L5,11 Z M6,13 L7,13 L7,14 L6,14 L6,13 Z M6,10 L7,10 L7,11 L6,11 L6,10 Z M15,14 L17,14 L17,15 L15,15 L15,14 Z M17,13 L18,13 L18,14 L17,14 L17,13 Z M7,9 L9,9 L9,10 L7,10 L7,9 Z M15,9 L17,9 L17,10 L15,10 L15,9 Z M17,10 L18,10 L18,11 L17,11 L17,10 Z M9,8 L15,8 L15,9 L9,9 L9,8 Z" id="Combined-Shape" fill="#FFFFFF"></path>
            <path d="M9,16 L15,16 L15,17 L9,17 L9,16 Z M15,15 L17,15 L17,16 L15,16 L15,15 Z M17,14 L18,14 L18,15 L17,15 L17,14 Z M6,14 L7,14 L7,15 L6,15 L6,14 Z M15,8 L17,8 L17,9 L15,9 L15,8 Z M7,15 L9,15 L9,16 L7,16 L7,15 Z M17,9 L18,9 L18,10 L17,10 L17,9 Z M18,10 L19,10 L19,11 L18,11 L18,10 Z M18,13 L19,13 L19,14 L18,14 L18,13 Z M5,13 L6,13 L6,14 L5,14 L5,13 Z M5,10 L6,10 L6,11 L5,11 L5,10 Z M6,9 L7,9 L7,10 L6,10 L6,9 Z M7,8 L9,8 L9,9 L7,9 L7,8 Z M4,11 L5,11 L5,13 L4,13 L4,11 Z M19,11 L20,11 L20,13 L19,13 L19,11 Z M9,7 L15,7 L15,8 L9,8 L9,7 Z" id="Combined-Shape" fill="#000000"></path>
        </g>
        <g id="Eye" filter="url(#filter-2)">
            <path d="M11,11 L11,10 L13,10 L13,11 L14,11 L14,13 L13,13 L13,14 L11,14 L11,13 L10,13 L10,11 L11,11 Z M18,12 L18,11 L19,11 L19,12 L19,13 L18,13 L18,12 Z M9,15 L15,15 L15,16 L9,16 L9,15 Z M7,14 L9,14 L9,15 L7,15 L7,14 Z M5,11 L6,11 L6,13 L5,13 L5,11 Z M6,13 L7,13 L7,14 L6,14 L6,13 Z M6,10 L7,10 L7,11 L6,11 L6,10 Z M15,14 L17,14 L17,15 L15,15 L15,14 Z M17,13 L18,13 L18,14 L17,14 L17,13 Z M7,9 L9,9 L9,10 L7,10 L7,9 Z M15,9 L17,9 L17,10 L15,10 L15,9 Z M17,10 L18,10 L18,11 L17,11 L17,10 Z M9,8 L15,8 L15,9 L9,9 L9,8 Z" id="Combined-Shape" fill="#FFFFFF"></path>
            <path d="M15,9 L15,10 L14,10 L14,11 L13,11 L13,12 L12,12 L12,13 L11,13 L11,14 L10,14 L10,15 L9,15 L9,16 L8,16 L7,16 L7,15 L8,15 L8,14 L9,14 L9,13 L10,13 L10,12 L11,12 L11,11 L12,11 L12,10 L13,10 L13,9 L14,9 L14,8 L15,8 L16,8 L16,9 L15,9 Z" id="Combined-Shape" fill="#000000"></path>
            <path d="M15,9 L15,8 L16,8 L16,9 L16,10 L15,10 L15,11 L14,11 L14,12 L13,12 L13,13 L12,13 L12,14 L11,14 L11,15 L10,15 L10,16 L9,16 L9,15 L9,14 L10,14 L10,13 L11,13 L11,12 L12,12 L12,11 L13,11 L13,10 L14,10 L14,9 L15,9 Z" id="Combined-Shape" fill="#000000"></path>
            <path d="M9,16 L15,16 L15,17 L9,17 L9,16 Z M15,15 L17,15 L17,16 L15,16 L15,15 Z M17,14 L18,14 L18,15 L17,15 L17,14 Z M6,14 L7,14 L7,15 L6,15 L6,14 Z M16,8 L17,8 L17,9 L16,9 L16,8 Z M17,9 L18,9 L18,10 L17,10 L17,9 Z M18,10 L19,10 L19,11 L18,11 L18,10 Z M18,13 L19,13 L19,14 L18,14 L18,13 Z M5,13 L6,13 L6,14 L5,14 L5,13 Z M5,10 L6,10 L6,11 L5,11 L5,10 Z M6,9 L7,9 L7,10 L6,10 L6,9 Z M7,8 L9,8 L9,9 L7,9 L7,8 Z M4,11 L5,11 L5,13 L4,13 L4,11 Z M19,11 L20,11 L20,13 L19,13 L19,11 Z M9,7 L15,7 L15,8 L9,8 L9,7 Z" id="Combined-Shape" fill="#000000"></path>
        </g>
        <g id="Eye" filter="url(#filter-3)" transform="translate(24.000000, 0.000000)">
            <path d="M11,11 L11,10 L13,10 L13,11 L14,11 L14,13 L13,13 L13,14 L11,14 L11,13 L10,13 L10,11 L11,11 Z M18,12 L18,11 L19,11 L19,12 L19,13 L18,13 L18,12 Z M9,15 L15,15 L15,16 L9,16 L9,15 Z M7,14 L9,14 L9,15 L7,15 L7,14 Z M5,11 L6,11 L6,13 L5,13 L5,11 Z M6,13 L7,13 L7,14 L6,14 L6,13 Z M6,10 L7,10 L7,11 L6,11 L6,10 Z M15,14 L17,14 L17,15 L15,15 L15,14 Z M17,13 L18,13 L18,14 L17,14 L17,13 Z M7,9 L9,9 L9,10 L7,10 L7,9 Z M15,9 L17,9 L17,10 L15,10 L15,9 Z M17,10 L18,10 L18,11 L17,11 L17,10 Z M9,8 L15,8 L15,9 L9,9 L9,8 Z" id="Combined-Shape" fill="#FFFFFF"></path>
            <path d="M12,12 L12,13 L11,13 L11,14 L10,14 L10,15 L9,15 L9,16 L8,16 L7,16 L7,15 L8,15 L8,14 L9,14 L9,13 L10,13 L10,12 L11,12 L11,11 L12,11 L12,10 L13,10 L13,9 L14,9 L15,9 L15,10 L14,10 L14,11 L13,11 L13,12 L12,12 Z M15,8 L16,8 L16,9 L15,9 L15,8 Z" id="Combined-Shape" fill="#000000"></path>
            <path d="M12,13 L12,14 L11,14 L11,15 L10,15 L10,16 L9,16 L9,15 L9,14 L10,14 L10,13 L11,13 L11,12 L12,12 L12,11 L13,11 L13,10 L14,10 L15,10 L15,11 L14,11 L14,12 L13,12 L13,13 L12,13 Z" id="Combined-Shape" fill="#000000"></path>
            <path d="M9,16 L15,16 L15,17 L9,17 L9,16 Z M15,15 L17,15 L17,16 L15,16 L15,15 Z M17,14 L18,14 L18,15 L17,15 L17,14 Z M6,14 L7,14 L7,15 L6,15 L6,14 Z M16,8 L17,8 L17,9 L16,9 L16,8 Z M17,9 L18,9 L18,10 L17,10 L17,9 Z M18,10 L19,10 L19,11 L18,11 L18,10 Z M18,13 L19,13 L19,14 L18,14 L18,13 Z M5,13 L6,13 L6,14 L5,14 L5,13 Z M5,10 L6,10 L6,11 L5,11 L5,10 Z M6,9 L7,9 L7,10 L6,10 L6,9 Z M7,8 L9,8 L9,9 L7,9 L7,8 Z M4,11 L5,11 L5,13 L4,13 L4,11 Z M19,11 L20,11 L20,13 L19,13 L19,11 Z M9,7 L15,7 L15,8 L9,8 L9,7 Z" id="Combined-Shape" fill="#000000"></path>
        </g>
        <g id="Eye" filter="url(#filter-4)" transform="translate(48.000000, 0.000000)">
            <path d="M11,11 L11,10 L13,10 L13,11 L14,11 L14,13 L13,13 L13,14 L11,14 L11,13 L10,13 L10,11 L11,11 Z M18,12 L18,11 L19,11 L19,12 L19,13 L18,13 L18,12 Z M9,15 L15,15 L15,16 L9,16 L9,15 Z M7,14 L9,14 L9,15 L7,15 L7,14 Z M5,11 L6,11 L6,13 L5,13 L5,11 Z M6,13 L7,13 L7,14 L6,14 L6,13 Z M6,10 L7,10 L7,11 L6,11 L6,10 Z M15,14 L17,14 L17,15 L15,15 L15,14 Z M17,13 L18,13 L18,14 L17,14 L17,13 Z M7,9 L9,9 L9,10 L7,10 L7,9 Z M15,9 L17,9 L17,10 L15,10 L15,9 Z M17,10 L18,10 L18,11 L17,11 L17,10 Z M9,8 L15,8 L15,9 L9,9 L9,8 Z" id="Combined-Shape" fill="#FFFFFF"></path>
            <path d="M12,12 L12,13 L11,13 L11,14 L10,14 L10,15 L9,15 L9,16 L8,16 L7,16 L7,15 L8,15 L8,14 L9,14 L9,13 L10,13 L10,12 L11,12 L11,11 L12,11 L13,11 L13,12 L12,12 Z M15,8 L16,8 L16,9 L15,9 L15,8 Z" id="Combined-Shape" fill="#000000"></path>
            <path d="M12,12 L12,11 L13,11 L13,12 L13,13 L12,13 L12,14 L11,14 L11,15 L10,15 L10,16 L9,16 L9,15 L9,14 L10,14 L10,13 L11,13 L11,12 L12,12 Z" id="Combined-Shape" fill="#000000"></path>
            <path d="M9,16 L15,16 L15,17 L9,17 L9,16 Z M15,15 L17,15 L17,16 L15,16 L15,15 Z M17,14 L18,14 L18,15 L17,15 L17,14 Z M6,14 L7,14 L7,15 L6,15 L6,14 Z M16,8 L17,8 L17,9 L16,9 L16,8 Z M17,9 L18,9 L18,10 L17,10 L17,9 Z M18,10 L19,10 L19,11 L18,11 L18,10 Z M18,13 L19,13 L19,14 L18,14 L18,13 Z M5,13 L6,13 L6,14 L5,14 L5,13 Z M5,10 L6,10 L6,11 L5,11 L5,10 Z M6,9 L7,9 L7,10 L6,10 L6,9 Z M7,8 L9,8 L9,9 L7,9 L7,8 Z M4,11 L5,11 L5,13 L4,13 L4,11 Z M19,11 L20,11 L20,13 L19,13 L19,11 Z M9,7 L15,7 L15,8 L9,8 L9,7 Z" id="Combined-Shape" fill="#000000"></path>
        </g>
        <g id="Eye" filter="url(#filter-5)" transform="translate(72.000000, 0.000000)">
            <path d="M11,11 L11,10 L13,10 L13,11 L14,11 L14,13 L13,13 L13,14 L11,14 L11,13 L10,13 L10,11 L11,11 Z M18,12 L18,11 L19,11 L19,12 L19,13 L18,13 L18,12 Z M9,15 L15,15 L15,16 L9,16 L9,15 Z M7,14 L9,14 L9,15 L7,15 L7,14 Z M5,11 L6,11 L6,13 L5,13 L5,11 Z M6,13 L7,13 L7,14 L6,14 L6,13 Z M6,10 L7,10 L7,11 L6,11 L6,10 Z M15,14 L17,14 L17,15 L15,15 L15,14 Z M17,13 L18,13 L18,14 L17,14 L17,13 Z M7,9 L9,9 L9,10 L7,10 L7,9 Z M15,9 L17,9 L17,10 L15,10 L15,9 Z M17,10 L18,10 L18,11 L17,11 L17,10 Z M9,8 L15,8 L15,9 L9,9 L9,8 Z" id="Combined-Shape" fill="#FFFFFF"></path>
            <path d="M9,14 L9,13 L10,13 L11,13 L11,14 L10,14 L10,15 L9,15 L9,16 L8,16 L7,16 L7,15 L8,15 L8,14 L9,14 Z M15,8 L16,8 L16,9 L15,9 L15,8 Z" id="Combined-Shape" fill="#000000"></path>
            <path d="M10,14 L10,13 L11,13 L11,14 L11,15 L10,15 L10,16 L9,16 L9,15 L9,14 L10,14 Z" id="Combined-Shape" fill="#000000"></path>
            <path d="M9,16 L15,16 L15,17 L9,17 L9,16 Z M15,15 L17,15 L17,16 L15,16 L15,15 Z M17,14 L18,14 L18,15 L17,15 L17,14 Z M6,14 L7,14 L7,15 L6,15 L6,14 Z M16,8 L17,8 L17,9 L16,9 L16,8 Z M17,9 L18,9 L18,10 L17,10 L17,9 Z M18,10 L19,10 L19,11 L18,11 L18,10 Z M18,13 L19,13 L19,14 L18,14 L18,13 Z M5,13 L6,13 L6,14 L5,14 L5,13 Z M5,10 L6,10 L6,11 L5,11 L5,10 Z M6,9 L7,9 L7,10 L6,10 L6,9 Z M7,8 L9,8 L9,9 L7,9 L7,8 Z M4,11 L5,11 L5,13 L4,13 L4,11 Z M19,11 L20,11 L20,13 L19,13 L19,11 Z M9,7 L15,7 L15,8 L9,8 L9,7 Z" id="Combined-Shape" fill="#000000"></path>
        </g>
    </g>
</svg>